<?xml version="1.0" encoding="UTF-8"?>
<svg version="1.1" xmlns="http://www.w3.org/2000/svg" width="500" height="500">
<path d="M0 0 C165 0 330 0 500 0 C500 165 500 330 500 500 C335 500 170 500 0 500 C0 335 0 170 0 0 Z " fill="#FEFEFE" transform="translate(0,0)"/>
<path d="M0 0 C0.33 0 0.66 0 1 0 C1.01417969 0.60585937 1.02835938 1.21171875 1.04296875 1.8359375 C1.45844392 9.13482561 3.33167189 16.34028299 8.6640625 21.66015625 C10 23 10 23 10 25 C10.56332031 25.2578125 11.12664062 25.515625 11.70703125 25.78125 C14.25830365 27.13729257 16.39359709 28.74266151 18.6875 30.5 C23.46207236 34.03932777 28.39501073 37.00978585 33.5625 39.9375 C45.44311716 46.75215101 56.52432417 55.5729725 61 69 C62.80812989 77.32653433 63.31148233 85.43756745 63.25 93.9375 C63.26160156 95.58202148 63.26160156 95.58202148 63.2734375 97.25976562 C63.27085937 98.31744141 63.26828125 99.37511719 63.265625 100.46484375 C63.26336914 101.409646 63.26111328 102.35444824 63.25878906 103.32788086 C62.98028249 106.20359259 62.19485519 108.38276878 61 111 C58.4727419 107.78066199 56.40141166 104.39182896 54.3125 100.875 C48.30479682 90.96875488 40.79310316 82.53466142 33 74 C31.64549107 72.47947149 30.29133231 70.95863098 28.9375 69.4375 C23.97713202 63.91624236 18.87216048 58.53225687 13.75952148 53.15209961 C9.70532575 48.87109573 5.79968625 44.50880344 2 40 C7.57204828 50.8717784 15.10511225 59.76342487 23 69 C61.95670126 114.69071542 61.95670126 114.69071542 61 141 C59.46616365 138.97019261 57.95382801 136.93421089 56.4921875 134.8515625 C55.69167969 133.74941406 55.69167969 133.74941406 54.875 132.625 C54.35679687 131.89539063 53.83859375 131.16578125 53.3046875 130.4140625 C45.65578077 122.4021568 35.04630793 118.7745637 25.03710938 114.58789062 C17.69345289 111.43470554 11.34673196 107.85413596 5 103 C4.03404907 102.29423828 4.03404907 102.29423828 3.04858398 101.57421875 C-6.74733037 94.28257891 -12.41674488 82.31099807 -16 71 C-16.36609375 69.89527344 -16.7321875 68.79054688 -17.109375 67.65234375 C-18.12702868 63.47907098 -18.34484595 59.71317294 -18.3125 55.4375 C-18.30686035 54.64883545 -18.3012207 53.8601709 -18.29541016 53.04760742 C-17.89488284 33.4356487 -9.24523173 16.78523183 0 0 Z " fill="#2CB9FF" transform="translate(194,165)"/>
<path d="M0 0 C5.13064927 5.91997993 7.93790742 12.88249235 11 20 C11.36867188 20.825 11.73734375 21.65 12.1171875 22.5 C14.2624327 28.22065388 14.30066427 34.02148303 14.375 40.0625 C14.38909912 40.90192139 14.40319824 41.74134277 14.41772461 42.60620117 C14.32502455 54.58093618 9.10852522 65.88384529 1.0625 74.6875 C-6.39167165 81.70245278 -15.94432977 85.86490644 -25.375 89.5625 C-34.01066399 93.04236999 -39.89592835 97.62769383 -44 106 C-44.99 106.99 -44.99 106.99 -46 108 C-47.44270216 92.49095182 -37.27150515 77.03586555 -27.92553711 65.48193359 C-24.9939204 61.94968328 -22.01123407 58.46450134 -19 55 C-17.01590259 52.71253123 -15.03499003 50.42248882 -13.0625 48.125 C-12.61817627 47.60824707 -12.17385254 47.09149414 -11.71606445 46.55908203 C-7.60982066 41.69913607 -4.21652849 36.47797855 -1 31 C-4.95437447 34.86193455 -8.83869933 38.73889922 -12.4375 42.9375 C-14.95985561 45.87738839 -17.60016478 48.60980088 -20.375 51.3125 C-30.0897018 60.92807219 -38.47130353 71.98719849 -45 84 C-49.83387214 75.52203921 -47.94099932 60.89206819 -45.5625 51.8125 C-41.45595326 40.71333696 -32.8033181 34.78987915 -23 29 C-20.86475223 27.64096837 -18.73970777 26.26577714 -16.625 24.875 C-15.66851562 24.25367188 -14.71203125 23.63234375 -13.7265625 22.9921875 C-7.85960292 18.70544053 -2.16658169 12.99841936 -0.46484375 5.70703125 C-0.22686811 3.81328148 -0.10210236 1.90591073 0 0 Z " fill="#325CFF" transform="translate(310,174)"/>
<path d="M0 0 C1.65463058 1.38539369 3.30046309 2.78136053 4.9375 4.1875 C5.76121094 4.86554688 6.58492187 5.54359375 7.43359375 6.2421875 C22.597897 19.15905111 33.18931107 36.88299448 37.9375 56.1875 C38.23398437 57.23550781 38.53046875 58.28351563 38.8359375 59.36328125 C45.41165179 85.03269805 39.51853028 111.97354196 26.46264648 134.57202148 C21.05588981 143.44685281 14.25067673 150.85139795 6.9375 158.1875 C6.2775 157.8575 5.6175 157.5275 4.9375 157.1875 C5.63875 156.47207031 6.34 155.75664062 7.0625 155.01953125 C16.70255973 144.97879695 23.6674819 134.14532228 28.9375 121.1875 C29.30746094 120.28257812 29.67742187 119.37765625 30.05859375 118.4453125 C33.95191873 108.37686034 35.29385351 98.57511135 35.1875 87.8125 C35.18000732 86.80445313 35.17251465 85.79640625 35.16479492 84.7578125 C34.81798972 60.70231875 26.59109916 40.321541 10.9375 22.1875 C10.02871094 20.9809375 10.02871094 20.9809375 9.1015625 19.75 C-4.39693779 3.76621626 -27.3919978 -6.51668193 -47.91577148 -8.65356445 C-76.61077177 -10.77803223 -100.93704106 -4.44613615 -123.0625 14.1875 C-123.72378906 14.68636719 -124.38507813 15.18523437 -125.06640625 15.69921875 C-140.50811677 27.62982108 -151.60489183 50.23518845 -154.35180664 69.18310547 C-157.45671251 95.977179 -153.54541876 121.18889637 -137.0625 143.1875 C-133.51126437 147.62087366 -129.81262218 151.92199032 -126.0625 156.1875 C-129.0625 156.1875 -129.0625 156.1875 -131.4453125 154.0546875 C-132.37183155 153.06885225 -133.28507116 152.07043397 -134.1875 151.0625 C-134.91610229 150.25051147 -134.91610229 150.25051147 -135.65942383 149.42211914 C-153.5748566 128.93436421 -163.05776158 101.87490365 -161.28564453 74.65429688 C-160.00813985 60.53186003 -156.59488516 47.75926013 -150.0625 35.1875 C-149.52753906 34.13304687 -148.99257812 33.07859375 -148.44140625 31.9921875 C-134.88720499 7.09406241 -111.35295805 -8.84966978 -84.68359375 -16.90234375 C-56.55476297 -23.97248137 -22.97884979 -17.99119247 0 0 Z " fill="#0B53B2" transform="translate(310.0625,128.8125)"/>
<path d="M0 0 C9.0333246 7.37414253 17.80113747 16.0259961 20 28 C20.78212468 36.4152655 21.00155791 43.71588399 15.95703125 50.86328125 C11.68689899 55.52548154 6.45404359 58.55357696 1.05078125 61.73828125 C-4.76332225 65.23916333 -8.29450275 67.68717308 -11 74 C-11.33 74 -11.66 74 -12 74 C-12.44562218 59.14592725 -11.41248718 47.24286248 -4 34 C-9.76556261 41.7239366 -13.37536761 48.45528469 -15 58 C-19.08534147 56.26630467 -20.42929244 54.4371223 -22.2265625 50.46875 C-24.01872946 44.74829788 -24.09179937 39.05979067 -22.0703125 33.39453125 C-18.86244102 27.42485326 -14.30821893 23.4129216 -9.26928711 19.04589844 C-3.23047704 13.68103292 -0.81809193 7.97639629 0 0 Z " fill="#719EB7" transform="translate(263,141)"/>
<path d="M0 0 C4.3038842 1.99880764 7.47952189 4.0397019 9.8359375 8.28125 C11.23618529 13.058566 11.31639433 17.01205601 9.2734375 21.59375 C6.58572229 26.27858692 2.9139141 28.58859113 -2.1640625 30.28125 C-7.99969213 30.84236823 -11.6094585 29.78479153 -16.1640625 26.28125 C-19.57928257 22.59640729 -21.03218091 20.02868101 -21.4140625 14.96875 C-21.09933956 10.32658663 -20.06237555 7.15931438 -16.69921875 3.83203125 C-11.45079669 -0.64645114 -6.70730192 -2.22769595 0 0 Z " fill="#0C8BFF" transform="translate(302.1640625,322.71875)"/>
<path d="M0 0 C2.701875 -0.0825 5.40375 -0.165 8.1875 -0.25 C9.02949951 -0.28641602 9.87149902 -0.32283203 10.73901367 -0.36035156 C14.62021032 -0.41755689 16.60212381 -0.23594984 20.0234375 1.79296875 C22 4 22 4 22.4375 7.5625 C22 11 22 11 20 14 C21.0209375 14.7734375 21.0209375 14.7734375 22.0625 15.5625 C24 18 24 18 24.0625 21.5 C22.76456153 25.77556202 21.81272868 26.72816685 18 29 C14.87285926 29.47207623 11.84059693 29.37840795 8.6875 29.25 C4.3871875 29.12625 4.3871875 29.12625 0 29 C0 19.43 0 9.86 0 0 Z " fill="#108DFF" transform="translate(323,323)"/>
<path d="M0 0 C2.81901736 1.09416098 5.40449079 2.4537392 8 4 C8 5.32 8 6.64 8 8 C6.3125 9.1875 6.3125 9.1875 4 10 C2.31791365 9.02616054 0.65261839 8.02304948 -1 7 C-4.57027167 6.48996119 -6.27898066 6.56359356 -9.375 8.4375 C-11.77149279 12.21658478 -11.91806186 15.64918509 -11 20 C-8.36270753 23.18026445 -6.91448247 23.91034486 -2.8125 24.3125 C-0.05144425 24.16976602 -0.05144425 24.16976602 2 23 C2.65213292 20.97536745 2.65213292 20.97536745 3 19 C1.35 19 -0.3 19 -2 19 C-2 17.35 -2 15.7 -2 14 C1.96 14 5.92 14 10 14 C10.61208267 24.28298887 10.61208267 24.28298887 7.8125 27.5625 C6.884375 28.036875 5.95625 28.51125 5 29 C4.21625 29.4125 3.4325 29.825 2.625 30.25 C-2.22148801 31.63471086 -6.20980025 31.68079087 -10.6875 29.3125 C-14.81995111 26.69373323 -17.44219638 23.67341087 -19 19 C-19.39680449 13.74234055 -18.89498146 10.43897158 -16 6 C-11.05971738 1.11241373 -7.01656166 -0.94124608 0 0 Z " fill="#0E8BFF" transform="translate(232,322)"/>
<path d="M0 0 C2.81901736 1.09416098 5.40449079 2.4537392 8 4 C8 5.32 8 6.64 8 8 C6.3125 9.1875 6.3125 9.1875 4 10 C2.31791365 9.02616054 0.65261839 8.02304948 -1 7 C-4.57027167 6.48996119 -6.27898066 6.56359356 -9.375 8.4375 C-11.77149279 12.21658478 -11.91806186 15.64918509 -11 20 C-8.36270753 23.18026445 -6.91448247 23.91034486 -2.8125 24.3125 C-0.05144425 24.16976602 -0.05144425 24.16976602 2 23 C2.65213292 20.97536745 2.65213292 20.97536745 3 19 C1.35 19 -0.3 19 -2 19 C-2 17.35 -2 15.7 -2 14 C1.96 14 5.92 14 10 14 C10.61208267 24.28298887 10.61208267 24.28298887 7.8125 27.5625 C6.884375 28.036875 5.95625 28.51125 5 29 C4.21625 29.4125 3.4325 29.825 2.625 30.25 C-2.22148801 31.63471086 -6.20980025 31.68079087 -10.6875 29.3125 C-14.81995111 26.69373323 -17.44219638 23.67341087 -19 19 C-19.39680449 13.74234055 -18.89498146 10.43897158 -16 6 C-11.05971738 1.11241373 -7.01656166 -0.94124608 0 0 Z " fill="#0E8BFF" transform="translate(142,322)"/>
<path d="M0 0 C2.05078125 0.03255208 4.1015625 0.06510417 6.15234375 0.09765625 C7.8271665 4.36533623 9.49079874 8.63729118 11.15234375 12.91015625 C11.62929688 14.12509766 12.10625 15.34003906 12.59765625 16.59179688 C13.04882812 17.75517578 13.5 18.91855469 13.96484375 20.1171875 C14.38378906 21.19073486 14.80273438 22.26428223 15.234375 23.37036133 C16.15234375 26.09765625 16.15234375 26.09765625 16.15234375 29.09765625 C14.17234375 29.09765625 12.19234375 29.09765625 10.15234375 29.09765625 C8.69171525 26.45026709 8.15234375 25.20317291 8.15234375 22.09765625 C4.19234375 22.09765625 0.23234375 22.09765625 -3.84765625 22.09765625 C-4.50765625 24.40765625 -5.16765625 26.71765625 -5.84765625 29.09765625 C-8.15765625 29.09765625 -10.46765625 29.09765625 -12.84765625 29.09765625 C-11.08249819 22.40686664 -8.7245654 15.97809764 -6.22265625 9.53515625 C-5.9093335 8.7251416 -5.59601074 7.91512695 -5.27319336 7.08056641 C-2.54808591 0.13467685 -2.54808591 0.13467685 0 0 Z " fill="#0889FF" transform="translate(366.84765625,322.90234375)"/>
<path d="M0 0 C2.31 0 4.62 0 7 0 C7.33 3.3 7.66 6.6 8 10 C8.556875 9.278125 9.11375 8.55625 9.6875 7.8125 C15.84631778 0.32204594 15.84631778 0.32204594 19.37890625 -0.6640625 C21.5625 -0.625 21.5625 -0.625 25 0 C24.60167969 0.45890625 24.20335938 0.9178125 23.79296875 1.390625 C22.70290961 2.65307793 21.6197868 3.92154673 20.54296875 5.1953125 C19.39685525 6.53583006 18.2087633 7.84068899 17 9.125 C16.67 9.74375 16.34 10.3625 16 11 C17.29594679 15.24534292 19.62672634 18.61451934 22.125 22.25 C26 27.90391459 26 27.90391459 26 29 C20.97927461 29.96891192 20.97927461 29.96891192 18 29 C15.11947059 25.62412722 13.0410037 21.92893212 11 18 C10.01 18.33 9.02 18.66 8 19 C7.67 22.3 7.34 25.6 7 29 C4.69 29 2.38 29 0 29 C0 19.43 0 9.86 0 0 Z " fill="#0E8CFF" transform="translate(90,323)"/>
<path d="M0 0 C1.98 0 3.96 0 6 0 C6 3.63 6 7.26 6 11 C10.29 11 14.58 11 19 11 C19 7.37 19 3.74 19 0 C20.98 0 22.96 0 25 0 C25 9.57 25 19.14 25 29 C23.02 29 21.04 29 19 29 C19 25.04 19 21.08 19 17 C14.71 17 10.42 17 6 17 C6 20.96 6 24.92 6 29 C4.02 29 2.04 29 0 29 C0 19.43 0 9.86 0 0 Z " fill="#0185FF" transform="translate(163,323)"/>
<path d="M0 0 C2.31 0 4.62 0 7 0 C7 7.59 7 15.18 7 23 C11.29 23 15.58 23 20 23 C20 24.98 20 26.96 20 29 C13.4 29 6.8 29 0 29 C0 19.43 0 9.86 0 0 Z " fill="#118DFF" transform="translate(253,323)"/>
<path d="M0 0 C2.09765625 0.6953125 2.09765625 0.6953125 4.72265625 2.6953125 C6.66051745 6.92337331 6.63448848 10.30553106 5.09765625 14.6953125 C2.47265625 17.3203125 2.47265625 17.3203125 -0.90234375 18.6953125 C-4.78164124 18.6953125 -7.04066257 18.22557784 -10.33984375 16.1953125 C-12.70165414 12.41641588 -12.76339235 9.02361929 -11.90234375 4.6953125 C-8.7082112 -0.4565142 -5.64065976 -1.03584737 0 0 Z " fill="#F8FBFF" transform="translate(299.90234375,328.3046875)"/>
<path d="M0 0 C1.98 0 3.96 0 6 0 C6 7.59 6 15.18 6 23 C10.62 23 15.24 23 20 23 C20 24.98 20 26.96 20 29 C13.4 29 6.8 29 0 29 C0 19.43 0 9.86 0 0 Z " fill="#0486FF" transform="translate(393,323)"/>
<path d="M0 0 C0.66 0.33 1.32 0.66 2 1 C-4.65816091 15.25262569 -13.19551712 26.61954284 -24 38 C-24.66 37.67 -25.32 37.34 -26 37 C-24.948125 35.92685547 -24.948125 35.92685547 -23.875 34.83203125 C-14.74463144 25.32217266 -8.07902802 15.31708877 -3.0078125 3.046875 C-2 1 -2 1 0 0 Z " fill="#318CDA" transform="translate(341,249)"/>
<path d="M0 0 C2.3539828 2.97565778 4.14105823 6.03809798 5.9375 9.375 C10.33728029 17.05565094 16.0955326 23.44594423 22 30 C19 30 19 30 16.6171875 27.8671875 C15.69112628 26.88092216 14.77781444 25.8825886 13.875 24.875 C13.39579102 24.34455078 12.91658203 23.81410156 12.42285156 23.26757812 C8.87125452 19.22537713 5.70981068 14.99144433 2.75 10.5 C2.35538574 9.91331543 1.96077148 9.32663086 1.55419922 8.72216797 C-1.06439388 4.58333278 -1.06439388 4.58333278 -0.734375 1.59375 C-0.49203125 1.0678125 -0.2496875 0.541875 0 0 Z " fill="#419AE2" transform="translate(162,255)"/>
<path d="M0 0 C2.97 0 5.94 0 9 0 C9.38218767 1.65614657 9.71395102 3.32457024 10 5 C9 6 9 6 6.93359375 6.09765625 C6.10988281 6.08605469 5.28617187 6.07445312 4.4375 6.0625 C3.61121094 6.05347656 2.78492188 6.04445313 1.93359375 6.03515625 C1.29550781 6.02355469 0.65742188 6.01195312 0 6 C0 4.02 0 2.04 0 0 Z " fill="#FDFEFF" transform="translate(330,340)"/>
<path d="M0 0 C3.375 -0.125 3.375 -0.125 7 0 C9 2 9 2 9 5 C6.04335481 6.4783226 3.25770263 6.06032783 0 6 C0 4.02 0 2.04 0 0 Z " fill="#EEF7FF" transform="translate(330,328)"/>
<path d="M0 0 C0.66 0 1.32 0 2 0 C0.4928658 5.25487456 -2.93007198 8.47940694 -6.625 12.3125 C-7.54152344 13.28026367 -7.54152344 13.28026367 -8.4765625 14.26757812 C-9.97810336 15.8512345 -11.48593043 17.42833341 -13 19 C-13.66 18.67 -14.32 18.34 -15 18 C-14.25234375 17.20335937 -13.5046875 16.40671875 -12.734375 15.5859375 C-11.73936279 14.51583003 -10.74458352 13.44550592 -9.75 12.375 C-9.25886719 11.85292969 -8.76773437 11.33085937 -8.26171875 10.79296875 C-5.84091141 8.17849682 -3.67562984 5.6154013 -1.765625 2.6015625 C-1.18296875 1.74304688 -0.6003125 0.88453125 0 0 Z " fill="#54A7E7" transform="translate(330,268)"/>
<path d="M0 0 C3.31012244 3.31012244 3.50351065 4.53159589 4 9 C1.69 9 -0.62 9 -3 9 C-2.01 6.03 -1.02 3.06 0 0 Z " fill="#D6EBFF" transform="translate(368,331)"/>
<path d="M0 0 C0.33 0.66 0.66 1.32 1 2 C0.02131869 4.43931143 -1.01300766 6.72052024 -2.1875 9.0625 C-2.49236328 9.71283203 -2.79722656 10.36316406 -3.11132812 11.03320312 C-5.46610341 15.77731015 -5.46610341 15.77731015 -8.23828125 16.93359375 C-8.81964844 16.95550781 -9.40101563 16.97742188 -10 17 C-8.51364884 12.78345644 -6.38750841 9.37521395 -3.875 5.6875 C-3.15054687 4.61886719 -2.42609375 3.55023438 -1.6796875 2.44921875 C-0.84824219 1.23685547 -0.84824219 1.23685547 0 0 Z " fill="#E5EDF1" transform="translate(260,172)"/>
<path d="M0 0 C2.86453858 3.41016497 4.34703566 6.90694544 6 11 C5.01 11 4.02 11 3 11 C-1.06153846 4.6 -1.06153846 4.6 -0.75 1.5625 C-0.5025 1.046875 -0.255 0.53125 0 0 Z " fill="#3B91DB" transform="translate(162,255)"/>
<path d="M0 0 C0 4.10202215 -1.4911355 5.81306402 -4 9 C-6.75 10.375 -6.75 10.375 -9 11 C-7.59155282 7.78475695 -5.89655214 5.67816132 -3.375 3.25 C-2.74335938 2.63640625 -2.11171875 2.0228125 -1.4609375 1.390625 C-0.73777344 0.70226562 -0.73777344 0.70226562 0 0 Z " fill="#D7DFFF" transform="translate(309,204)"/>
<path d="M0 0 C4.41309542 3.15221101 7.00793014 6.55463907 10 11 C6.8510285 9.63088196 4.9521513 8.1247864 2.75 5.5 C2.22921875 4.8915625 1.7084375 4.283125 1.171875 3.65625 C0 2 0 2 0 0 Z " fill="#58ACEA" transform="translate(174,275)"/>
<path d="M0 0 C0.66 0.33 1.32 0.66 2 1 C1.01 3.31 0.02 5.62 -1 8 C-1.99 8 -2.98 8 -4 8 C-3.40138258 5.64828869 -2.73075648 3.3140622 -2 1 C-1.34 0.67 -0.68 0.34 0 0 Z " fill="#2C83D3" transform="translate(341,249)"/>
</svg>
