<svg width="336" height="259" viewBox="0 0 336 259" fill="none" xmlns="http://www.w3.org/2000/svg">
<mask id="mask0_1_96" style="mask-type:luminance" maskUnits="userSpaceOnUse" x="64" y="0" width="204" height="202">
<path d="M64 0H268V202H64V0Z" fill="white"/>
</mask>
<g mask="url(#mask0_1_96)">
<mask id="mask1_1_96" style="mask-type:luminance" maskUnits="userSpaceOnUse" x="65" y="0" width="202" height="202">
<path d="M166 201.776C159.531 201.776 153.12 201.161 146.766 199.932C143.594 199.318 140.464 198.552 137.359 197.635C134.26 196.719 131.214 195.651 128.219 194.432C125.568 193.359 122.969 192.172 120.417 190.875C117.87 189.578 115.375 188.177 112.943 186.667C110.516 185.161 108.151 183.552 105.854 181.844C103.562 180.135 101.344 178.333 99.1979 176.438C97.0573 174.542 95 172.557 93.026 170.484C91.0521 168.417 89.1718 166.266 87.3802 164.031C85.5885 161.802 83.8958 159.5 82.3021 157.125C80.7031 154.75 79.2135 152.313 77.8229 149.813C76.4375 147.307 75.1562 144.755 73.9843 142.146C72.8125 139.531 71.7552 136.88 70.8073 134.177C69.8593 131.479 69.0312 128.745 68.3177 125.974C67.6041 123.203 67.0052 120.406 66.5312 117.589C66.052 114.766 65.6979 111.927 65.4583 109.078C65.2239 106.229 65.1093 103.37 65.1145 100.51C65.1198 97.651 65.25 94.7917 65.5 91.9427C65.7448 89.0938 66.1146 86.2604 66.6041 83.4427C68.0468 75.1875 70.4791 67.2344 73.9114 59.5886C77.3385 51.9427 81.6562 44.8385 86.8646 38.2708C88.9479 35.6458 91.1562 33.1302 93.4948 30.7188C98.1875 25.875 103.312 21.5469 108.875 17.7344L109.917 17.026C110.271 16.7917 110.615 16.5521 110.974 16.3281L112.036 15.651C112.391 15.4219 112.745 15.1927 113.104 14.9792C114.542 14.099 116 13.2552 117.474 12.4427C120.427 10.8177 123.458 9.34897 126.568 8.03126C132.802 5.39063 139.24 3.39584 145.88 2.05209C149.193 1.38542 152.526 0.885423 155.891 0.546881C159.255 0.208339 162.625 0.0364642 166 0.0416722C172.776 0.0416722 179.484 0.708339 186.125 2.04688C196.12 4.06251 205.594 7.52084 214.536 12.4219C217.495 14.0365 220.359 15.8021 223.141 17.7083C227.292 20.5573 231.214 23.6979 234.896 27.1302C238.578 30.5625 241.984 34.2552 245.115 38.1979C248.245 42.1406 251.068 46.2969 253.573 50.6667C256.083 55.0313 258.25 59.5625 260.078 64.25C262.5 70.4688 264.281 76.8646 265.422 83.4427C265.911 86.2604 266.281 89.0938 266.526 91.9427C266.776 94.7969 266.901 97.651 266.906 100.51C266.911 103.37 266.797 106.229 266.557 109.078C266.323 111.932 265.964 114.766 265.484 117.589C265.01 120.406 264.411 123.203 263.698 125.974C262.984 128.745 262.151 131.479 261.203 134.177C260.255 136.88 259.198 139.531 258.026 142.146C256.854 144.755 255.573 147.307 254.182 149.813C252.797 152.313 251.302 154.75 249.708 157.125C248.109 159.5 246.417 161.802 244.625 164.031C242.833 166.26 240.953 168.411 238.979 170.484C237.005 172.557 234.948 174.542 232.802 176.438C230.661 178.333 228.443 180.135 226.151 181.844C223.854 183.552 221.49 185.161 219.057 186.667C216.63 188.177 214.135 189.578 211.589 190.875C209.036 192.172 206.437 193.354 203.786 194.432C200.792 195.646 197.745 196.708 194.641 197.63C191.542 198.547 188.406 199.318 185.24 199.927C182.073 200.547 178.875 201 175.661 201.318C172.453 201.635 169.229 201.776 166 201.776ZM166 201.776C169.229 201.771 172.448 201.609 175.661 201.292C178.87 200.974 182.062 200.49 185.219 199.854C191.557 198.573 197.703 196.672 203.656 194.151C205.141 193.521 206.604 192.859 208.057 192.156C209.505 191.458 210.932 190.719 212.344 189.938C219.411 186.063 225.891 181.37 231.781 175.87C237.672 170.365 242.792 164.224 247.141 157.438C248.083 155.948 248.99 154.438 249.849 152.906C250.714 151.37 251.536 149.813 252.312 148.229C253.089 146.651 253.823 145.052 254.51 143.432C255.203 141.813 255.849 140.172 256.448 138.516C257.047 136.865 257.599 135.193 258.109 133.505C258.62 131.818 259.078 130.12 259.495 128.411C259.911 126.698 260.281 124.979 260.599 123.245C260.922 121.516 261.198 119.776 261.422 118.031C261.646 116.281 261.823 114.531 261.953 112.776C262.083 111.021 262.167 109.26 262.203 107.5C262.234 105.74 262.219 103.979 262.156 102.219C262.094 100.464 261.984 98.7031 261.823 96.9531C261.667 95.1979 261.458 93.4479 261.203 91.7083C260.948 89.9635 260.646 88.2292 260.297 86.5052C259.948 84.776 259.552 83.0625 259.109 81.3594C258.667 79.6563 258.172 77.9636 257.641 76.2865C257.104 74.6094 256.521 72.9479 255.891 71.3021C255.266 69.6563 254.594 68.0313 253.875 66.4219C253.161 64.8125 252.401 63.224 251.599 61.6615C250.797 60.0938 249.948 58.5469 249.062 57.0261C248.172 55.5052 247.245 54.0104 246.276 52.5417C245.302 51.0729 244.297 49.6302 243.245 48.2136C242.198 46.8021 241.109 45.4167 239.984 44.0625C238.859 42.7083 237.703 41.3854 236.505 40.0938C235.307 38.8021 234.073 37.5417 232.807 36.3177C231.542 35.0938 230.245 33.9063 228.911 32.7552C227.583 31.6042 226.219 30.4844 224.828 29.4063C223.437 28.3281 222.016 27.2917 220.568 26.2917C219.115 25.2917 217.641 24.3281 216.141 23.4115C214.635 22.4896 213.109 21.6146 211.562 20.776C210.01 19.9427 208.443 19.151 206.849 18.401C205.255 17.651 203.641 16.9427 202.01 16.2813C199.156 15.1302 196.25 14.1146 193.302 13.2344C190.349 12.3594 187.365 11.6302 184.344 11.0469C178.281 9.87501 172.167 9.29167 166 9.29167C162.917 9.29167 159.844 9.43751 156.781 9.72917C153.724 10.0208 150.677 10.4583 147.656 11.0417C141.599 12.2135 135.708 13.9531 129.99 16.2708C127.458 17.2917 124.979 18.4219 122.542 19.6563C120.109 20.8906 117.734 22.2292 115.411 23.6615C113.094 25.099 110.839 26.6302 108.646 28.2604C106.458 29.8854 104.339 31.6042 102.292 33.4115C100.25 35.2188 98.2864 37.1094 96.401 39.0833C94.5156 41.0573 92.7187 43.1094 91.0104 45.2344C89.2968 47.3646 87.6823 49.5573 86.1562 51.8229C84.6354 54.0886 83.2083 56.4115 81.8802 58.7969C80.5573 61.1823 79.3333 63.6198 78.2135 66.1042C77.0937 68.5938 76.0781 71.125 75.177 73.7031C74.2708 76.2761 73.4739 78.8854 72.7916 81.5261C72.1093 84.1667 71.5364 86.8333 71.0781 89.526C70.625 92.2135 70.2812 94.9219 70.052 97.6406C69.8229 100.359 69.7135 103.083 69.7135 105.813C69.7187 108.542 69.8385 111.266 70.0729 113.984C70.3073 116.703 70.6562 119.406 71.1198 122.094C73.3125 134.802 77.8906 146.583 84.8489 157.438C91.8646 168.375 100.724 177.521 111.437 184.875C116.766 188.536 122.401 191.625 128.349 194.146C134.302 196.667 140.443 198.568 146.776 199.849C149.937 200.49 153.125 200.969 156.333 201.286C159.552 201.604 162.771 201.771 166 201.776Z" fill="white"/>
</mask>
<g mask="url(#mask1_1_96)">
<path d="M266.911 0.0364609H65.1094V201.776H266.911V0.0364609Z" fill="url(#paint0_linear_1_96)"/>
</g>
</g>
<mask id="mask2_1_96" style="mask-type:luminance" maskUnits="userSpaceOnUse" x="90" y="54" width="151" height="148">
<path d="M90.8802 54.6823H240.88V201.682H90.8802V54.6823Z" fill="white"/>
</mask>
<g mask="url(#mask2_1_96)">
<mask id="mask3_1_96" style="mask-type:luminance" maskUnits="userSpaceOnUse" x="90" y="54" width="152" height="149">
<path d="M241.333 54.5625H90.6667V202.562H241.333V54.5625Z" fill="white"/>
</mask>
<g mask="url(#mask3_1_96)">
<mask id="mask4_1_96" style="mask-type:luminance" maskUnits="userSpaceOnUse" x="91" y="54" width="84" height="148">
<path d="M91.6824 54.6823H174.667V201.682H91.6824V54.6823Z" fill="white"/>
</mask>
<g mask="url(#mask4_1_96)">
<path d="M111 54.6823C109.136 64.0208 113.802 73.6458 120.526 80.3698C127.245 87.1094 135.849 91.5729 144.052 96.3698C152.276 101.172 160.479 106.646 165.63 114.646C170.125 121.604 171.958 129.943 172.896 138.161C174.073 148.141 173.912 158.609 170.74 168.005C168.438 162.339 165.427 156.922 162.005 151.854C155.281 141.891 147.005 133.099 138.771 124.349C129.141 114.13 119.526 103.932 109.896 93.7135C119.865 112.385 135.307 127.448 148.354 144.104C161.406 160.781 172.531 180.688 171.313 201.823C170.344 191.005 161.568 182.417 152.042 177.193C142.516 171.969 131.844 169.047 122.464 163.583C104.714 153.25 92.7813 133.552 91.8543 113.031C90.9168 92.276 100.386 72.5313 111 54.6823Z" fill="#2AB9FF"/>
</g>
<mask id="mask5_1_96" style="mask-type:luminance" maskUnits="userSpaceOnUse" x="177" y="62" width="64" height="114">
<path d="M177.333 62.5625H240.802V175.896H177.333V62.5625Z" fill="white"/>
</mask>
<g mask="url(#mask5_1_96)">
<mask id="mask6_1_96" style="mask-type:luminance" maskUnits="userSpaceOnUse" x="178" y="63" width="63" height="113">
<path d="M225.875 63.6354C227.281 70.7135 223.745 78.0052 218.651 83.099C213.557 88.1927 207.042 91.5833 200.818 95.224C194.594 98.8646 188.386 103.005 184.464 109.068C181.057 114.339 179.682 120.651 178.958 126.891C178.094 134.432 178.214 142.375 180.62 149.495C182.365 145.208 184.641 141.099 187.24 137.266C192.333 129.719 198.599 123.057 204.839 116.438C212.136 108.703 219.417 100.964 226.708 93.2292C219.167 107.38 207.469 118.771 197.573 131.411C187.682 144.031 179.255 159.109 180.177 175.125C180.912 166.932 187.563 160.427 194.771 156.464C201.979 152.505 210.063 150.302 217.182 146.161C230.63 138.292 239.672 123.38 240.375 107.833C241.083 92.1146 233.901 77.1719 225.875 63.6354Z" fill="white"/>
</mask>
<g mask="url(#mask6_1_96)">
<path d="M178.094 63.6354V175.125H240.802V63.6354H178.094Z" fill="url(#paint1_linear_1_96)"/>
</g>
</g>
</g>
</g>
<mask id="mask7_1_96" style="mask-type:luminance" maskUnits="userSpaceOnUse" x="154" y="29" width="46" height="81">
<path d="M154.667 29.4948H200V109.229H154.667V29.4948Z" fill="white"/>
</mask>
<g mask="url(#mask7_1_96)">
<mask id="mask8_1_96" style="mask-type:luminance" maskUnits="userSpaceOnUse" x="155" y="29" width="45" height="81">
<path d="M199.203 63.7396C198.568 56.8646 195.63 50.3594 191.651 44.7136C187.672 39.0677 182.672 34.2344 177.526 29.6354C179.583 33.8646 178.63 39.0625 176.271 43.1302C173.911 47.2031 170.339 50.3959 166.88 53.5834C163.422 56.7656 159.948 60.1146 157.885 64.3438C155.63 68.9792 153.182 81.5417 163.849 90.0052C164.703 83.2552 165.172 80.974 167.245 76.4948C169.318 72.0104 172.563 68.1979 175.349 64.1198C178.13 60.0417 180.536 55.4167 180.516 50.4844C180.818 54.3177 179.536 58.1094 177.797 61.5365C176.057 64.9636 173.859 68.1459 172.135 71.5729C169.005 77.7761 166.667 86.5886 166.672 109.167C166.76 106.5 167.719 103.797 169.208 101.51C169.432 101.172 169.661 100.849 169.901 100.526C170.083 100.297 170.266 100.063 170.453 99.8386C173.406 96.3125 177.474 93.8594 181.484 91.5677C185.75 89.125 190.151 86.6927 193.411 83.0156C197.99 77.8594 199.833 70.6146 199.203 63.7396Z" fill="white"/>
</mask>
<g mask="url(#mask8_1_96)">
<path d="M199.833 29.6354V109.167H153.182V29.6354H199.833Z" fill="url(#paint2_linear_1_96)"/>
</g>
</g>
<mask id="mask9_1_96" style="mask-type:luminance" maskUnits="userSpaceOnUse" x="154" y="29" width="47" height="81">
<path d="M154.667 29.4948H200.141V109.495H154.667V29.4948Z" fill="white"/>
</mask>
<g mask="url(#mask9_1_96)">
<path d="M199.203 63.7396C198.568 56.8646 195.63 50.3594 191.651 44.7136C187.672 39.0677 182.672 34.2344 177.526 29.6354C179.583 33.8646 178.63 39.0625 176.271 43.1302C173.911 47.2031 170.339 50.3958 166.88 53.5833C163.422 56.7656 159.948 60.1146 157.885 64.3438C155.63 68.9792 153.182 81.5417 163.849 90.0052C164.703 83.2552 165.172 80.974 167.245 76.4948C169.318 72.0104 172.563 68.1979 175.349 64.1198C178.13 60.0417 180.536 55.4167 180.516 50.4844C180.818 54.3177 179.536 58.1094 177.797 61.5365C176.057 64.9635 173.859 68.1458 172.135 71.5729C169.005 77.776 166.667 86.5885 166.672 109.167C166.76 106.5 167.719 103.797 169.208 101.51C169.432 101.172 169.661 100.849 169.901 100.526C170.083 100.297 170.266 100.062 170.453 99.8385C173.406 96.3125 177.474 93.8594 181.484 91.5677C185.75 89.125 190.151 86.6927 193.411 83.0156C197.99 77.8594 199.833 70.6146 199.203 63.7396Z" stroke="white" stroke-width="0.0664153" stroke-miterlimit="10"/>
</g>
<mask id="mask10_1_96" style="mask-type:luminance" maskUnits="userSpaceOnUse" x="0" y="202" width="336" height="57">
<path d="M336 202.562H0V258.562H336V202.562Z" fill="white"/>
</mask>
<g mask="url(#mask10_1_96)">
<path d="M6.25653 213.723H12.5065V226.265L23.7982 213.723H31.319L20.4649 225.848L32.1524 242.973H24.8399L16.2774 230.432L12.5065 234.411V242.973H6.25653V213.723Z" fill="#0085FF"/>
<path d="M54.6868 243.598C52.4212 243.598 50.3171 243.192 48.3743 242.39C46.4421 241.588 44.7702 240.494 43.3535 239.119C41.9368 237.734 40.8171 236.114 39.9993 234.265C39.1921 232.406 38.791 230.432 38.791 228.348C38.791 226.255 39.1921 224.281 39.9993 222.432C40.8171 220.588 41.9368 218.973 43.3535 217.598C44.7702 216.213 46.4421 215.114 48.3743 214.307C50.3171 213.505 52.4212 213.098 54.6868 213.098C56.7129 213.098 58.4993 213.406 60.041 214.015C61.5931 214.63 62.8848 215.296 63.916 216.015C65.1087 216.88 66.1348 217.859 66.9993 218.953L62.8327 223.119C62.2181 222.343 61.5046 221.651 60.6868 221.036C59.9889 220.51 59.1452 220.031 58.1452 219.598C57.1452 219.171 55.9889 218.953 54.6868 218.953C53.3639 218.953 52.1348 219.197 50.9993 219.682C49.8587 220.171 48.8587 220.838 47.9993 221.682C47.1504 222.531 46.4837 223.531 45.9993 224.682C45.5098 225.822 45.2702 227.046 45.2702 228.348C45.2702 229.656 45.5098 230.885 45.9993 232.036C46.4837 233.177 47.1504 234.171 47.9993 235.015C48.8587 235.864 49.8587 236.531 50.9993 237.015C52.1348 237.505 53.3639 237.744 54.6868 237.744C55.7389 237.744 56.666 237.635 57.4577 237.411C58.2493 237.192 58.9212 236.927 59.4785 236.619C60.1139 236.286 60.6712 235.901 61.1452 235.453V231.89H55.7285V226.89H67.416V237.953C66.4993 239.026 65.416 239.973 64.166 240.807C63.1087 241.531 61.7806 242.177 60.1868 242.744C58.6035 243.312 56.7702 243.598 54.6868 243.598Z" fill="#0085FF"/>
<path d="M79.0864 213.723H85.3364V225.203H97.8781V213.723H104.149V242.973H97.8781V231.057H85.3364V242.973H79.0864V213.723Z" fill="#0085FF"/>
<path d="M144.817 243.598C142.551 243.598 140.447 243.192 138.504 242.39C136.572 241.588 134.9 240.494 133.483 239.119C132.067 237.734 130.947 236.114 130.129 234.265C129.322 232.406 128.921 230.432 128.921 228.348C128.921 226.255 129.322 224.281 130.129 222.432C130.947 220.588 132.067 218.973 133.483 217.598C134.9 216.213 136.572 215.114 138.504 214.307C140.447 213.505 142.551 213.098 144.817 213.098C146.843 213.098 148.629 213.406 150.171 214.015C151.723 214.63 153.015 215.296 154.046 216.015C155.239 216.88 156.265 217.859 157.129 218.953L152.963 223.119C152.348 222.343 151.635 221.651 150.817 221.036C150.119 220.51 149.275 220.031 148.275 219.598C147.275 219.171 146.119 218.953 144.817 218.953C143.494 218.953 142.265 219.197 141.129 219.682C139.989 220.171 138.989 220.838 138.129 221.682C137.28 222.531 136.614 223.531 136.129 224.682C135.64 225.822 135.4 227.046 135.4 228.348C135.4 229.656 135.64 230.885 136.129 232.036C136.614 233.177 137.28 234.171 138.129 235.015C138.989 235.864 139.989 236.531 141.129 237.015C142.265 237.505 143.494 237.744 144.817 237.744C145.869 237.744 146.796 237.635 147.588 237.411C148.379 237.192 149.051 236.927 149.608 236.619C150.244 236.286 150.801 235.901 151.275 235.453V231.89H145.858V226.89H157.546V237.953C156.629 239.026 155.546 239.973 154.296 240.807C153.239 241.531 151.911 242.177 150.317 242.744C148.733 243.312 146.9 243.598 144.817 243.598Z" fill="#0085FF"/>
<path d="M169.216 213.723H175.466V237.119H189.05V242.973H169.216V213.723Z" fill="#0085FF"/>
<path d="M212.842 243.598C210.576 243.598 208.472 243.192 206.529 242.39C204.597 241.588 202.925 240.494 201.509 239.119C200.092 237.734 198.972 236.114 198.154 234.265C197.347 232.406 196.946 230.432 196.946 228.348C196.946 226.255 197.347 224.281 198.154 222.432C198.972 220.588 200.092 218.973 201.509 217.598C202.925 216.213 204.597 215.114 206.529 214.307C208.472 213.505 210.576 213.098 212.842 213.098C215.092 213.098 217.18 213.505 219.113 214.307C221.055 215.114 222.738 216.213 224.154 217.598C225.571 218.973 226.68 220.588 227.488 222.432C228.305 224.281 228.717 226.255 228.717 228.348C228.717 230.432 228.305 232.406 227.488 234.265C226.68 236.114 225.571 237.734 224.154 239.119C222.738 240.494 221.055 241.588 219.113 242.39C217.18 243.192 215.092 243.598 212.842 243.598ZM212.842 237.744C214.144 237.744 215.368 237.505 216.509 237.015C217.644 236.531 218.639 235.864 219.488 235.015C220.347 234.171 221.019 233.177 221.509 232.036C221.993 230.885 222.238 229.656 222.238 228.348C222.238 227.046 221.993 225.822 221.509 224.682C221.019 223.531 220.347 222.531 219.488 221.682C218.639 220.838 217.644 220.171 216.509 219.682C215.368 219.197 214.144 218.953 212.842 218.953C211.519 218.953 210.29 219.197 209.154 219.682C208.014 220.171 207.014 220.838 206.154 221.682C205.305 222.531 204.639 223.531 204.154 224.682C203.665 225.822 203.425 227.046 203.425 228.348C203.425 229.656 203.665 230.885 204.154 232.036C204.639 233.177 205.305 234.171 206.154 235.015C207.014 235.864 208.014 236.531 209.154 237.015C210.29 237.505 211.519 237.744 212.842 237.744Z" fill="#0085FF"/>
<path d="M239.539 213.723H251.852C253.31 213.723 254.623 213.932 255.789 214.348C256.956 214.765 257.94 215.322 258.748 216.015C259.55 216.713 260.17 217.536 260.602 218.494C261.045 219.442 261.269 220.427 261.269 221.453C261.269 222.619 261.05 223.588 260.623 224.348C260.206 225.114 259.748 225.739 259.248 226.223C258.664 226.781 258.008 227.213 257.289 227.515C258.289 227.822 259.19 228.296 259.998 228.932C260.675 229.489 261.3 230.218 261.873 231.119C262.44 232.026 262.727 233.192 262.727 234.619C262.727 235.76 262.498 236.838 262.039 237.848C261.581 238.864 260.914 239.755 260.039 240.515C259.175 241.265 258.128 241.864 256.894 242.307C255.654 242.755 254.253 242.973 252.685 242.973H239.539V213.723ZM252.269 237.536C253.529 237.536 254.508 237.213 255.206 236.557C255.899 235.906 256.248 235.052 256.248 233.994C256.248 232.927 255.899 232.067 255.206 231.411C254.508 230.76 253.529 230.432 252.269 230.432H245.789V237.536H252.269ZM251.435 224.994C252.487 224.994 253.31 224.718 253.894 224.161C254.487 223.609 254.789 222.911 254.789 222.078C254.789 221.244 254.487 220.552 253.894 219.994C253.31 219.442 252.487 219.161 251.435 219.161H245.789V224.994H251.435Z" fill="#0085FF"/>
<path d="M281.281 213.723H288.385L299.656 242.973H292.969L290.469 236.286H279.177L276.677 242.973H269.989L281.281 213.723ZM288.385 230.64L284.906 221.036H284.739L281.281 230.64H288.385Z" fill="#0085FF"/>
<path d="M308.818 213.723H315.068V237.119H328.651V242.973H308.818V213.723Z" fill="#0085FF"/>
</g>
<defs>
<linearGradient id="paint0_linear_1_96" x1="166.014" y1="0.0387782" x2="166.014" y2="201.777" gradientUnits="userSpaceOnUse">
<stop stop-color="#004AAD"/>
<stop offset="0.25" stop-color="#004AAD"/>
<stop offset="0.375" stop-color="#004AAD"/>
<stop offset="0.4375" stop-color="#004AAD"/>
<stop offset="0.46875" stop-color="#004AAD"/>
<stop offset="0.484375" stop-color="#004AAD"/>
<stop offset="0.488281" stop-color="#014BAE"/>
<stop offset="0.492187" stop-color="#014CAF"/>
<stop offset="0.496094" stop-color="#024DAF"/>
<stop offset="0.5" stop-color="#024EB0"/>
<stop offset="0.503906" stop-color="#024FB0"/>
<stop offset="0.507812" stop-color="#034FB1"/>
<stop offset="0.511719" stop-color="#0350B2"/>
<stop offset="0.515625" stop-color="#0451B2"/>
<stop offset="0.519531" stop-color="#0452B3"/>
<stop offset="0.523438" stop-color="#0452B3"/>
<stop offset="0.527344" stop-color="#0553B4"/>
<stop offset="0.53125" stop-color="#0554B5"/>
<stop offset="0.535156" stop-color="#0655B5"/>
<stop offset="0.539062" stop-color="#0656B6"/>
<stop offset="0.542969" stop-color="#0656B6"/>
<stop offset="0.546875" stop-color="#0757B7"/>
<stop offset="0.550781" stop-color="#0758B8"/>
<stop offset="0.554688" stop-color="#0859B8"/>
<stop offset="0.558594" stop-color="#085AB9"/>
<stop offset="0.5625" stop-color="#085AB9"/>
<stop offset="0.566406" stop-color="#095BBA"/>
<stop offset="0.570312" stop-color="#095CBB"/>
<stop offset="0.574219" stop-color="#0A5DBB"/>
<stop offset="0.578125" stop-color="#0A5DBC"/>
<stop offset="0.582031" stop-color="#0A5EBC"/>
<stop offset="0.585938" stop-color="#0B5FBD"/>
<stop offset="0.589844" stop-color="#0B60BD"/>
<stop offset="0.59375" stop-color="#0C61BE"/>
<stop offset="0.597656" stop-color="#0C61BF"/>
<stop offset="0.601562" stop-color="#0C62BF"/>
<stop offset="0.605469" stop-color="#0D63C0"/>
<stop offset="0.609375" stop-color="#0D64C0"/>
<stop offset="0.613281" stop-color="#0E64C1"/>
<stop offset="0.617188" stop-color="#0E65C2"/>
<stop offset="0.621094" stop-color="#0E66C2"/>
<stop offset="0.625" stop-color="#0F67C3"/>
<stop offset="0.628906" stop-color="#0F68C3"/>
<stop offset="0.632812" stop-color="#1068C4"/>
<stop offset="0.636719" stop-color="#1069C5"/>
<stop offset="0.640625" stop-color="#116AC5"/>
<stop offset="0.644531" stop-color="#116BC6"/>
<stop offset="0.648438" stop-color="#116BC6"/>
<stop offset="0.652344" stop-color="#126CC7"/>
<stop offset="0.65625" stop-color="#126DC8"/>
<stop offset="0.660156" stop-color="#136EC8"/>
<stop offset="0.664062" stop-color="#136FC9"/>
<stop offset="0.667969" stop-color="#136FC9"/>
<stop offset="0.671875" stop-color="#1470CA"/>
<stop offset="0.675781" stop-color="#1471CA"/>
<stop offset="0.679688" stop-color="#1572CB"/>
<stop offset="0.683594" stop-color="#1572CC"/>
<stop offset="0.6875" stop-color="#1573CC"/>
<stop offset="0.691406" stop-color="#1674CD"/>
<stop offset="0.695312" stop-color="#1675CD"/>
<stop offset="0.699219" stop-color="#1776CE"/>
<stop offset="0.703125" stop-color="#1776CF"/>
<stop offset="0.707031" stop-color="#1777CF"/>
<stop offset="0.710937" stop-color="#1878D0"/>
<stop offset="0.714844" stop-color="#1879D0"/>
<stop offset="0.71875" stop-color="#1979D1"/>
<stop offset="0.722656" stop-color="#197AD2"/>
<stop offset="0.726562" stop-color="#197BD2"/>
<stop offset="0.730469" stop-color="#1A7CD3"/>
<stop offset="0.734375" stop-color="#1A7DD3"/>
<stop offset="0.738281" stop-color="#1B7DD4"/>
<stop offset="0.742187" stop-color="#1B7ED5"/>
<stop offset="0.746094" stop-color="#1B7FD5"/>
<stop offset="0.75" stop-color="#1C80D6"/>
<stop offset="0.753906" stop-color="#1C80D6"/>
<stop offset="0.757813" stop-color="#1D81D7"/>
<stop offset="0.761719" stop-color="#1D82D7"/>
<stop offset="0.765625" stop-color="#1D83D8"/>
<stop offset="0.769531" stop-color="#1E84D9"/>
<stop offset="0.773438" stop-color="#1E84D9"/>
<stop offset="0.777344" stop-color="#1F85DA"/>
<stop offset="0.78125" stop-color="#1F86DA"/>
<stop offset="0.785156" stop-color="#1F87DB"/>
<stop offset="0.789063" stop-color="#2087DC"/>
<stop offset="0.792969" stop-color="#2088DC"/>
<stop offset="0.796875" stop-color="#2189DD"/>
<stop offset="0.800781" stop-color="#218ADD"/>
<stop offset="0.804688" stop-color="#218BDE"/>
<stop offset="0.808594" stop-color="#228BDF"/>
<stop offset="0.8125" stop-color="#228CDF"/>
<stop offset="0.816406" stop-color="#238DE0"/>
<stop offset="0.820313" stop-color="#238EE0"/>
<stop offset="0.824219" stop-color="#238EE1"/>
<stop offset="0.828125" stop-color="#248FE2"/>
<stop offset="0.832031" stop-color="#2490E2"/>
<stop offset="0.835938" stop-color="#2591E3"/>
<stop offset="0.839844" stop-color="#2592E3"/>
<stop offset="0.84375" stop-color="#2592E4"/>
<stop offset="0.847656" stop-color="#2693E4"/>
<stop offset="0.851563" stop-color="#2694E5"/>
<stop offset="0.855469" stop-color="#2795E6"/>
<stop offset="0.859375" stop-color="#2795E6"/>
<stop offset="0.863281" stop-color="#2896E7"/>
<stop offset="0.867188" stop-color="#2897E7"/>
<stop offset="0.871094" stop-color="#2898E8"/>
<stop offset="0.875" stop-color="#2999E9"/>
<stop offset="0.878906" stop-color="#2999E9"/>
<stop offset="0.882813" stop-color="#2A9AEA"/>
<stop offset="0.886719" stop-color="#2A9BEA"/>
<stop offset="0.890625" stop-color="#2A9CEB"/>
<stop offset="0.894531" stop-color="#2B9CEC"/>
<stop offset="0.898438" stop-color="#2B9DEC"/>
<stop offset="0.902344" stop-color="#2C9EED"/>
<stop offset="0.90625" stop-color="#2C9FED"/>
<stop offset="0.910156" stop-color="#2CA0EE"/>
<stop offset="0.914062" stop-color="#2DA0EF"/>
<stop offset="0.917969" stop-color="#2DA1EF"/>
<stop offset="0.921875" stop-color="#2EA2F0"/>
<stop offset="0.925781" stop-color="#2EA3F0"/>
<stop offset="0.929688" stop-color="#2EA3F1"/>
<stop offset="0.933594" stop-color="#2FA4F1"/>
<stop offset="0.9375" stop-color="#2FA5F2"/>
<stop offset="0.941406" stop-color="#30A6F3"/>
<stop offset="0.945312" stop-color="#30A7F3"/>
<stop offset="0.949219" stop-color="#30A7F4"/>
<stop offset="0.953125" stop-color="#31A8F4"/>
<stop offset="0.957031" stop-color="#31A9F5"/>
<stop offset="0.960938" stop-color="#32AAF6"/>
<stop offset="0.964844" stop-color="#32AAF6"/>
<stop offset="0.96875" stop-color="#32ABF7"/>
<stop offset="0.972656" stop-color="#33ACF7"/>
<stop offset="0.976562" stop-color="#33ADF8"/>
<stop offset="0.980469" stop-color="#34AEF9"/>
<stop offset="0.984375" stop-color="#34AEF9"/>
<stop offset="0.988281" stop-color="#34AFFA"/>
<stop offset="0.992188" stop-color="#35B0FA"/>
<stop offset="0.996094" stop-color="#35B1FB"/>
<stop offset="1" stop-color="#36B1FC"/>
</linearGradient>
<linearGradient id="paint1_linear_1_96" x1="209.447" y1="63.637" x2="209.447" y2="175.122" gradientUnits="userSpaceOnUse">
<stop stop-color="#2F59FF"/>
<stop offset="0.25" stop-color="#2F59FF"/>
<stop offset="0.5" stop-color="#2F5AFF"/>
<stop offset="0.75" stop-color="#2F5BFF"/>
<stop offset="1" stop-color="#2F5CFF"/>
</linearGradient>
<linearGradient id="paint2_linear_1_96" x1="177.626" y1="29.6362" x2="177.626" y2="109.169" gradientUnits="userSpaceOnUse">
<stop stop-color="#659AC3"/>
<stop offset="0.03125" stop-color="#659AC2"/>
<stop offset="0.0625" stop-color="#669AC1"/>
<stop offset="0.09375" stop-color="#669AC1"/>
<stop offset="0.125" stop-color="#679BC0"/>
<stop offset="0.15625" stop-color="#689BBF"/>
<stop offset="0.1875" stop-color="#689BBE"/>
<stop offset="0.21875" stop-color="#699BBD"/>
<stop offset="0.25" stop-color="#699BBC"/>
<stop offset="0.28125" stop-color="#6A9CBC"/>
<stop offset="0.3125" stop-color="#6B9CBB"/>
<stop offset="0.34375" stop-color="#6B9CBA"/>
<stop offset="0.375" stop-color="#6C9CB9"/>
<stop offset="0.40625" stop-color="#6C9CB8"/>
<stop offset="0.4375" stop-color="#6D9CB7"/>
<stop offset="0.46875" stop-color="#6E9DB7"/>
<stop offset="0.5" stop-color="#6E9DB6"/>
<stop offset="0.53125" stop-color="#6F9DB5"/>
<stop offset="0.5625" stop-color="#709DB4"/>
<stop offset="0.59375" stop-color="#709DB3"/>
<stop offset="0.625" stop-color="#719EB2"/>
<stop offset="0.65625" stop-color="#719EB2"/>
<stop offset="0.6875" stop-color="#729EB1"/>
<stop offset="0.71875" stop-color="#739EB0"/>
<stop offset="0.75" stop-color="#739EAF"/>
<stop offset="0.78125" stop-color="#749EAE"/>
<stop offset="0.8125" stop-color="#759FAD"/>
<stop offset="0.84375" stop-color="#759FAD"/>
<stop offset="0.875" stop-color="#769FAC"/>
<stop offset="0.90625" stop-color="#769FAB"/>
<stop offset="0.9375" stop-color="#779FAA"/>
<stop offset="0.96875" stop-color="#789FA9"/>
<stop offset="1" stop-color="#78A0A8"/>
</linearGradient>
</defs>
</svg>
